# xmcd
#
# Track frame offsets:
#	150
#	22287
#	43610
#	65947
#	86765
#
# Disc length: 1454 seconds
#
# Revision: 0
# Processed by: cddbd v1.5.1PL0 Copyright (c) Steve Scherf et al.
# Submitted via: EasyCDDAExtractor 8.0.2.1
#
DISCID=4705ac05
DTITLE=Monica - Before You Walk Out Of My Life (REMIX) [CD Single)
DYEAR=1995
DGENRE=R&B
TTITLE0=Before You Walk Out Of My Life (Album Version)
TTITLE1=Like This And Like That (Album Version)
TTITLE2=Before You Walk Out Of My Life (Mike Dean Mix)
TTITLE3=Like This And Like That (All Star Mix)
TTITLE4=Before You Walk Out Of My Life (Pete Rock Mix)
EXTD=YEAR: 1995 ID3G:  14\n
EXTT0=
EXTT1=
EXTT2=
EXTT3=
EXTT4=
PLAYORDER=
